<?xml version="1.0" encoding="UTF-8"?>
<svg id="Layer_2" data-name="Layer 2" xmlns="http://www.w3.org/2000/svg" viewBox="0 0 398.88 303.7">
  <defs>
    <style>
      .cls-1 {
        fill: #4788c8;
      }
    </style>
  </defs>
  <g id="Layer_1-2" data-name="Layer 1">
    <path class="cls-1" d="M132,244.8l-13.89,9.09c-12.22,8-22.66,18.44-30.66,30.66l-9.09,13.89c-4.59,7.02-14.87,7.02-19.47,0l-9.09-13.89c-8-12.22-18.44-22.66-30.66-30.66l-13.89-9.09c-7.02-4.59-7.02-14.87,0-19.47l13.89-9.09c12.22-8,22.66-18.44,30.66-30.66l9.09-13.89c4.59-7.02,14.87-7.02,19.47,0l9.09,13.89c8,12.22,18.44,22.66,30.66,30.66l13.89,9.09c7.02,4.59,7.02,14.87,0,19.47Z"/>
    <path d="M257.66,172.05l-46.94,124.64c-3.56,9.44-16.96,9.3-20.32-.21L91.27,15.79c-2.72-7.7,2.99-15.79,11.17-15.79h91.32c5.15,0,9.74,3.27,11.42,8.14l52.64,152.84c1.24,3.6,1.18,7.51-.16,11.07Z"/>
    <rect x="295.74" width="103.14" height="296.08" rx="11.25" ry="11.25"/>
  </g>
</svg>