<?xml version="1.0" encoding="UTF-8"?>
<svg id="Layer_2" data-name="Layer 2" xmlns="http://www.w3.org/2000/svg" viewBox="0 0 979.11 1000.36">
  <defs>
    <style>
      .cls-1 {
        fill: #0085fe;
      }
    </style>
  </defs>
  <g id="Logo">
    <path class="cls-1" d="M974.96,46.7l-101.63,178.49c-11.48,20.16-32.9,32.61-56.1,32.61h-492.68c-20.5,0-33.5,22.1-23.5,40l108.2,191.17c8.41,14.85,24.15,24.03,41.22,24.03h218.89c21.2,0,34.5,22.9,24,41.3l-245.8,431.51c-11,19.4-39,19.4-50,0l-109.4-192c-7.7-13.6-8-30.1-.8-43.8l114.1-199.3c.5-.8.9-1.7,1.3-2.5l.2-.5c6.6-16.2-5.2-34.7-23.3-34.7h-219.2c-19.79,0-38.05-10.62-47.85-27.81L3.14,293c-9-15.7,2.4-35.2,20.5-35.2h233.9c12.9,0,24.8-6.9,31.2-18.1L412.65,24.8c8.9-15.3,25.2-24.8,42.9-24.8h492.21c24,0,39.1,25.9,27.2,46.7Z"/>
  </g>
</svg>