<?xml version="1.0" encoding="UTF-8"?>
<svg id="Layer_1" data-name="Layer 1" xmlns="http://www.w3.org/2000/svg" viewBox="0 0 227.6 44.09">
  <defs>
    <style>
      .cls-1 {
        fill: #5772e1;
      }

      .cls-2 {
        fill: #d6505a;
      }

      .cls-3 {
        fill: #2da761;
      }
    </style>
  </defs>
  <circle class="cls-1" cx="15.14" cy="22.04" r="15.14"/>
  <path class="cls-3" d="M227.6,33.01c0,1.39-.11,2.75-.31,4.07-2.14.55-4.38.84-6.68.84-14.82,0-26.84-12.02-26.84-26.84,0-1.38.11-2.74.31-4.07,2.14-.55,4.38-.84,6.68-.84,14.82,0,26.84,12.02,26.84,26.84Z"/>
  <path class="cls-2" d="M112.19,22.04l19.93,9.5c-1.64,3.44-4.14,6.4-7.27,8.59-9.92,6.95-23.8,4.5-30.75-5.42s-4.5-23.8,5.42-30.75,23.8-4.5,30.75,5.42c.74,1.05,1.38,2.17,1.93,3.34l-20.01,9.33Z"/>
</svg>