<?xml version="1.0" encoding="UTF-8"?>
<svg xmlns="http://www.w3.org/2000/svg" viewBox="0 0 554.68 541.94">
  <defs>
    <style>
      .cls-1 {
        fill: #00a4ff;
      }
    </style>
  </defs>
  <g id="Layer_3" data-name="Layer 3">
    <path class="cls-1" d="M325.82,52.08c-6.4-.49-12.75-.74-19.07-.73-11.53,0-22.89.81-34.03,2.39,2.17,11.09,1.33,24.81.54,32.57,11-1.78,22.2-2.68,33.51-2.68h.01c5.48,0,11.04.21,16.55.64,28.43,2.2,55.56,9.9,80.64,22.88,24.24,12.54,45.58,29.47,63.43,50.31,17.84,20.84,31.28,44.53,39.93,70.41,8.96,26.78,12.39,54.78,10.18,83.21-4.13,53.35-28.07,102.68-67.4,138.92-30.42,28.03-67.85,46.26-107.9,52.99,2.7,8.77,7.35,22.76,11.77,30.67,104.62-20.5,187.08-108.61,195.72-220.09,10.39-134.03-89.85-251.1-223.88-261.49ZM288.2,510l5.18-4.55c-.89-.06-1.79-.12-2.68-.19-28.43-2.2-55.56-9.9-80.64-22.88-24.24-12.54-45.58-29.47-63.42-50.31-17.84-20.84-31.28-44.53-39.94-70.41-8.96-26.78-12.38-54.78-10.18-83.21.9-11.63,2.75-23.06,5.48-34.21-12.49-4.07-22.14-12.11-28.39-18.67-4.76,16.11-7.92,32.97-9.27,50.39-10.39,134.03,89.84,251.1,223.87,261.49,6.41.49,12.75.74,19.07.74,4.74,0,8.12-.38,12.8-.65-.86-.15,0,0,0,0l-31.88-27.54Z"/>
  </g>
  <g id="Layer_2" data-name="Layer 2">
    <path class="cls-1" d="M320.08,537.54s-15.64-35.6-16.43-59.05,4.48-42.95,20.82-65.08c0,0-35.05-8.43-48.22-30.83,0,0,35.84,17.65,64.56,20.55s62.45,3.69,81.95-12.12c19.5-15.81,27.14-30.83,27.93-34.25,0,0-48.68-36.18-98.83-66.49-27.72-16.76-53.63-36.35-77.41-58.34-4.36-4.03-8.53-7.86-12.17-11.15-10.66-9.62-19.83-20.82-26.84-33.35-5.43-9.72-9.39-19.47-10.84-27.24,0,0,28.72-19.24,27.93-54.02,0,0-12.91,33.2-31.88,41.9,0,0-8.43-41.63,10.01-69.3,0,0-17.79,9.4-20.82,33.46-1.58,19.24-8.96,55.6,22.4,110.93,0,0-9.74.91-21.68-.63-18.83-2.43-34.7-15.61-39.79-33.9-1.39-4.98-1.25-7.66-1.25-7.66,0,0-9.65,22.25,3.57,35.68,0,0-38.41-4.62-58.98-16.37,0,0,20.57-40.3,23.93-70.31,3.36-30.01,12.59-108.3-25.4-127.82,0,0,21.83,23.51,13.64,89.62s-33.37,93.19-33.37,93.19c0,0-6.38-4.52-14.72-16.68s-13.98-25.43-17.39-39.53c-8.42-34.85-17.64-57.37-30.23-68.45C16.52,47.91,1.83,47.07,1.83,47.07c0,0,27.28,18.47,32.53,50.37s13.64,80.17,44.49,109.35,77.03,39.88,126.35,44.28,58.56,19.94,65.9,36.1c0,0-36.52-26.44-88.15-18.68,0,0-5.25,31.48,48.06,50.79,0,0-39.88,43.65-70.52,126.98s159.59,91.29,159.59,91.29Z"/>
    <path class="cls-1" d="M270.86,210.91s-7.32-15.77-6.88-35.37c0,0,26.31-15.94,31.1-35.46,0,0-12.28,15.07-29.88,21.43,0,0-1.66-20.65,20.65-51.75,0,0-27.35,23.46-31.46,41.69-4.42,15.92-7.25,34.97.21,43.92s10.15,11.68,16.27,15.54Z"/>
    <path class="cls-1" d="M174.91,176.87s1.31,31.78,25.89,34.92c11.64,1.44,16.22,0,16.22,0,0,0-20.66-37.01-23.02-55.84,0,0-5.62,15.43.39,27.46,0,0-9.94,1.57-19.49-6.54Z"/>
    <path class="cls-1" d="M89.55,12.23s20.84,21.13,18.24,68.03-3.18,49.21-3.18,49.21c0,0,9.21-15.36,12.94-44.64,1.25-9.86,1.46-19.85.23-29.71-3.42-27.35-14.87-35.97-28.22-42.89Z"/>
    <path class="cls-1" d="M190.04,25.64s.02.5.05,1.45c.18,7.59.19,43.59-14.23,72.95-16.21,33-25.76,37.05-25.76,37.05l-10.42,42.84,21.42,17.66s-2.03-15.92,6.66-21.71l-15.63-8.68s41.69-59.63,42.55-89.16c2.03-29.53-4.63-52.4-4.63-52.4Z"/>
  </g>
</svg>