<svg xmlns="http://www.w3.org/2000/svg" viewBox="0 0 164.17 164.17">
  <path fill="#f6cd2a" d="M2.6,61.68L61.81,2.47c3.3-3.3,8.75-2.77,11.42,1.06,13.59,19.49,11.7,46.49-5.69,63.88-17.39,17.39-44.4,19.28-63.88,5.69-3.82-2.67-4.35-8.12-1.06-11.42Z"/>
  <path fill="#4eb75a" d="M161.32,102l-59.21,59.21c-3.3,3.3-8.75,2.77-11.42-1.06-13.59-19.49-11.7-46.49,5.69-63.88,17.39-17.39,44.4-19.28,63.88-5.69,3.82,2.67,4.35,8.12,1.06,11.42Z"/>
  <path fill="#559ed6" d="M102.78,2.18l59.21,59.21c3.3,3.3,2.77,8.75-1.06,11.42-19.49,13.59-46.49,11.7-63.88-5.69-17.39-17.39-19.28-44.4-5.69-63.88,2.67-3.82,8.12-4.35,11.42-1.06Z"/>
  <path fill="#ee519c" d="M61.38,161.99L2.18,102.78c-3.3-3.3-2.77-8.75,1.06-11.42,19.49-13.59,46.49-11.7,63.88,5.69,17.39,17.39,19.28,44.4,5.69,63.88-2.67,3.82-8.12,4.35-11.42,1.06Z"/>
</svg>
